mtllib drum.mtl
o drum
v 0.947504 0.000000 0.685362
v 0.685362 0.000000 0.947504
v 0.314638 0.000000 0.947504
v 0.052496 0.000000 0.685362
v 0.052496 0.000000 0.314638
v 0.314638 0.000000 0.052496
v 0.685362 0.000000 0.052496
v 0.947504 0.000000 0.314638
v 0.947504 1.000000 0.685362
v 0.685362 1.000000 0.947504
v 0.314638 1.000000 0.947504
v 0.052496 1.000000 0.685362
v 0.052496 1.000000 0.314638
v 0.314638 1.000000 0.052496
v 0.685362 1.000000 0.052496
v 0.947504 1.000000 0.314638
v 0.947504 1.000000 0.685362
v 0.685362 1.000000 0.947504
v 0.314638 1.000000 0.947504
v 0.052496 1.000000 0.685362
v 0.052496 1.000000 0.314638
v 0.314638 1.000000 0.052496
v 0.685362 1.000000 0.052496
v 0.947504 1.000000 0.314638
v 0.947504 0.000000 0.685362
v 0.685362 0.000000 0.947504
v 0.314638 0.000000 0.947504
v 0.052496 0.000000 0.685362
v 0.052496 0.000000 0.314638
v 0.314638 0.000000 0.052496
v 0.685362 0.000000 0.052496
v 0.947504 0.000000 0.314638
vt 0.000000 0.000000
vt 0.125000 0.000000
vt 0.250000 0.000000
vt 0.375000 0.000000
vt 0.500000 0.000000
vt 0.625000 0.000000
vt 0.750000 0.000000
vt 0.875000 0.000000
vt 0.000000 1.000000
vt 0.125000 1.000000
vt 0.250000 1.000000
vt 0.375000 1.000000
vt 0.500000 1.000000
vt 0.625000 1.000000
vt 0.750000 1.000000
vt 0.875000 1.000000
vt 0.889762 0.661445
vt 0.661445 0.889762
vt 0.338555 0.889762
vt 0.110238 0.661445
vt 0.110238 0.338555
vt 0.338555 0.110238
vt 0.661445 0.110238
vt 0.889762 0.338555
vt 0.500000 0.500000
vn 0.000000 -1.000000 0.000000
vn 0.000000 1.000000 0.000000
vn 0.923880 0.000000 0.382683
vn 0.382683 0.000000 0.923880
vn -0.382683 0.000000 0.923880
vn -0.923880 0.000000 0.382683
vn -0.923880 0.000000 -0.382683
vn -0.382683 0.000000 -0.923880
vn 0.382683 0.000000 -0.923880
vn 0.923880 0.000000 -0.382683
usemtl center
f 1/1/3 9/9/3 10/10/3 2/2/3
f 2/2/4 10/10/4 11/11/4 3/3/4
f 3/3/5 11/11/5 12/12/5 4/4/5
f 4/4/6 12/12/6 13/13/6 5/5/6
f 5/5/7 13/13/7 14/14/7 6/6/7
f 6/6/8 14/14/8 15/15/8 7/7/8
f 7/7/9 15/15/9 16/16/9 8/8/9
f 8/8/10 16/16/10 9/9/10 1/1/10
usemtl stripe
f 1/1/3 9/9/3 10/10/3 2/2/3
f 2/2/4 10/10/4 11/11/4 3/3/4
f 3/3/5 11/11/5 12/12/5 4/4/5
f 4/4/6 12/12/6 13/13/6 5/5/6
f 5/5/7 13/13/7 14/14/7 6/6/7
f 6/6/8 14/14/8 15/15/8 7/7/8
f 7/7/9 15/15/9 16/16/9 8/8/9
f 8/8/10 16/16/10 9/9/10 1/1/10
v 0.500000 0.937500 0.500000
v 0.500000 0.062500 0.500000
usemtl top
f 33/25/2 18/18/2 17/17/2
f 33/25/2 19/19/2 18/18/2
f 33/25/2 20/20/2 19/19/2
f 33/25/2 21/21/2 20/20/2
f 33/25/2 22/22/2 21/21/2
f 33/25/2 23/23/2 22/22/2
f 33/25/2 24/24/2 23/23/2
f 33/25/2 17/17/2 24/24/2
f 34/25/1 25/17/1 26/18/1
f 34/25/1 26/18/1 27/19/1
f 34/25/1 27/19/1 28/20/1
f 34/25/1 28/20/1 29/21/1
f 34/25/1 29/21/1 30/22/1
f 34/25/1 30/22/1 31/23/1
f 34/25/1 31/23/1 32/24/1
f 34/25/1 32/24/1 25/17/1
